<?xml version="1.0" encoding="UTF-8" standalone="no"?>
<!-- Created with Inkscape (http://www.inkscape.org/) -->

<svg
   xmlns:svg="http://www.w3.org/2000/svg"
   xmlns="http://www.w3.org/2000/svg"
   version="1.1"
   width="743.67102"
   height="142.24001"
   viewBox="0 0 743.67102 142.24001"
   id="Layer_1"
   xml:space="preserve"><defs
   id="defs262" />
<path
   d="M 441.155,136.042 H 301.291 100.006 v -0.181 C 49.093,135.757 16.269,123.564 16.012,104.722 15.751,85.524 49.093,73.692 100.006,73.584 v -0.179 h 220.23 101.977 220.229 v 0.179 c 50.914,0.107 84.25,11.939 83.994,31.138 -0.261,18.842 -33.08,31.034 -83.994,31.139 v 0.181 H 441.155 z"
   id="path3" />
<linearGradient
   x1="600.21881"
   y1="319.70309"
   x2="601.0108"
   y2="359.2879"
   id="SVGID_1_"
   gradientUnits="userSpaceOnUse">
	<stop
   id="stop6"
   style="stop-color:#9d949a;stop-opacity:1"
   offset="0" />
	<stop
   id="stop8"
   style="stop-color:#efefef;stop-opacity:1"
   offset="0.23" />
	<stop
   id="stop10"
   style="stop-color:#ffffff;stop-opacity:1"
   offset="0.46000001" />
	<stop
   id="stop12"
   style="stop-color:#3d160d;stop-opacity:1"
   offset="0.5" />
	<stop
   id="stop14"
   style="stop-color:#c57f3d;stop-opacity:1"
   offset="0.56" />
	<stop
   id="stop16"
   style="stop-color:#edd999;stop-opacity:1"
   offset="0.63" />
	<stop
   id="stop18"
   style="stop-color:#f1ece0;stop-opacity:1"
   offset="0.76999998" />
	<stop
   id="stop20"
   style="stop-color:#ffffff;stop-opacity:1"
   offset="0.99000001" />
</linearGradient>
<polygon
   points="618.11,319.969 600.224,346.428 582.338,319.969 563.709,319.969 590.13,359.081 610.318,359.081 636.739,319.969 "
   transform="translate(-25.475,-234.654)"
   id="polygon22"
   style="fill:url(#SVGID_1_)" />
<linearGradient
   x1="64.721703"
   y1="323.2861"
   x2="66.305199"
   y2="354.16061"
   id="SVGID_2_"
   gradientUnits="userSpaceOnUse"
   gradientTransform="translate(-25.475,-234.654)">
	<stop
   id="stop25"
   style="stop-color:#9d949a;stop-opacity:1"
   offset="0" />
	<stop
   id="stop27"
   style="stop-color:#efefef;stop-opacity:1"
   offset="0.23" />
	<stop
   id="stop29"
   style="stop-color:#ffffff;stop-opacity:1"
   offset="0.46000001" />
	<stop
   id="stop31"
   style="stop-color:#3d160d;stop-opacity:1"
   offset="0.5" />
	<stop
   id="stop33"
   style="stop-color:#c57f3d;stop-opacity:1"
   offset="0.56" />
	<stop
   id="stop35"
   style="stop-color:#edd999;stop-opacity:1"
   offset="0.63" />
	<stop
   id="stop37"
   style="stop-color:#f1ece0;stop-opacity:1"
   offset="0.76999998" />
	<stop
   id="stop39"
   style="stop-color:#ffffff;stop-opacity:1"
   offset="0.99000001" />
</linearGradient>
<path
   d="m 30.28,104.834 c 0,-5.418 4.379,-9.797 9.797,-9.797 5.419,0 9.798,4.379 9.798,9.797 0,5.418 -4.379,9.797 -9.798,9.797 -5.418,0 -9.797,-4.379 -9.797,-9.797 z"
   id="path41"
   style="fill:url(#SVGID_2_)" />
<linearGradient
   x1="729.06842"
   y1="324.875"
   x2="729.06842"
   y2="351.79291"
   id="SVGID_3_"
   gradientUnits="userSpaceOnUse"
   gradientTransform="translate(-25.475,-234.654)">
	<stop
   id="stop44"
   style="stop-color:#9d949a;stop-opacity:1"
   offset="0" />
	<stop
   id="stop46"
   style="stop-color:#efefef;stop-opacity:1"
   offset="0.23" />
	<stop
   id="stop48"
   style="stop-color:#ffffff;stop-opacity:1"
   offset="0.46000001" />
	<stop
   id="stop50"
   style="stop-color:#3d160d;stop-opacity:1"
   offset="0.5" />
	<stop
   id="stop52"
   style="stop-color:#c57f3d;stop-opacity:1"
   offset="0.56" />
	<stop
   id="stop54"
   style="stop-color:#edd999;stop-opacity:1"
   offset="0.63" />
	<stop
   id="stop56"
   style="stop-color:#f1ece0;stop-opacity:1"
   offset="0.76999998" />
	<stop
   id="stop58"
   style="stop-color:#ffffff;stop-opacity:1"
   offset="0.99000001" />
</linearGradient>
<path
   d="m 713.389,104.834 c 0,-5.418 -4.378,-9.797 -9.796,-9.797 -5.419,0 -9.797,4.379 -9.797,9.797 0,5.418 4.378,9.797 9.797,9.797 5.418,0 9.796,-4.379 9.796,-9.797 z"
   id="path60"
   style="fill:url(#SVGID_3_)" />
<g
   transform="translate(-25.475,-234.654)"
   id="g62">
	<linearGradient
   x1="396.87741"
   y1="295.2988"
   x2="397.66949"
   y2="376.05121"
   id="SVGID_4_"
   gradientUnits="userSpaceOnUse">
		<stop
   id="stop65"
   style="stop-color:#e8e4df;stop-opacity:1"
   offset="0" />
		<stop
   id="stop67"
   style="stop-color:#b3abad;stop-opacity:1"
   offset="0.09" />
		<stop
   id="stop69"
   style="stop-color:#efefef;stop-opacity:1"
   offset="0.22" />
		<stop
   id="stop71"
   style="stop-color:#ffffff;stop-opacity:1"
   offset="0.46000001" />
		<stop
   id="stop73"
   style="stop-color:#3d160d;stop-opacity:1"
   offset="0.49000001" />
		<stop
   id="stop75"
   style="stop-color:#c57f3d;stop-opacity:1"
   offset="0.56" />
		<stop
   id="stop77"
   style="stop-color:#edd999;stop-opacity:1"
   offset="0.63" />
		<stop
   id="stop79"
   style="stop-color:#f1ece0;stop-opacity:1"
   offset="0.76999998" />
		<stop
   id="stop81"
   style="stop-color:#ffffff;stop-opacity:1"
   offset="0.92000002" />
		<stop
   id="stop83"
   style="stop-color:#cdc5c3;stop-opacity:1"
   offset="0.99000001" />
	</linearGradient>
	<path
   d="m 290.658,271.799 c -1.819,9.316 -19.149,15.141 -43.196,20.523 -18.926,4.268 -41.97,8.09 -64.829,9.759 h -52.954 c -62.495,0.113 -104.204,11.876 -104.204,37.407 0,25.53 41.709,37.293 104.204,37.406 h 198.608 138.046 198.609 c 62.492,-0.113 104.204,-11.876 104.204,-37.406 0,-25.531 -41.712,-37.294 -104.204,-37.407 h -52.955 c -22.859,-1.669 -45.904,-5.491 -64.828,-9.759 -24.048,-5.382 -41.379,-11.207 -43.197,-20.523 l -0.186,1.447 c 0,13.471 -32.136,24.865 -76.37,28.834 h -60.192 c -44.234,-3.969 -76.371,-15.363 -76.371,-28.834 l -0.185,-1.447 z m 175.675,95.299 H 328.287 129.679 v -0.149 c -50.248,-0.11 -82.644,-10.836 -82.867,-27.46 -0.261,-16.922 32.619,-27.351 82.867,-27.461 v -0.148 h 217.31 100.642 217.312 v 0.148 c 50.247,0.11 83.125,10.539 82.865,27.461 -0.223,16.624 -32.618,27.35 -82.865,27.46 v 0.149 h -198.61 z"
   id="path85"
   style="fill:url(#SVGID_4_)" />
</g>
<linearGradient
   x1="397.31049"
   y1="234.6543"
   x2="397.31049"
   y2="294.69781"
   id="SVGID_5_"
   gradientUnits="userSpaceOnUse"
   gradientTransform="translate(-25.475,-234.654)">
	<stop
   id="stop88"
   style="stop-color:#9d949a;stop-opacity:1"
   offset="0" />
	<stop
   id="stop90"
   style="stop-color:#efefef;stop-opacity:1"
   offset="0.23" />
	<stop
   id="stop92"
   style="stop-color:#ffffff;stop-opacity:1"
   offset="0.46000001" />
	<stop
   id="stop94"
   style="stop-color:#3d160d;stop-opacity:1"
   offset="0.5" />
	<stop
   id="stop96"
   style="stop-color:#c57f3d;stop-opacity:1"
   offset="0.56" />
	<stop
   id="stop98"
   style="stop-color:#edd999;stop-opacity:1"
   offset="0.63" />
	<stop
   id="stop100"
   style="stop-color:#f1ece0;stop-opacity:1"
   offset="0.76999998" />
	<stop
   id="stop102"
   style="stop-color:#ffffff;stop-opacity:1"
   offset="0.99000001" />
</linearGradient>
<path
   d="M 279.025,30.467 C 279.025,13.657 310.753,0 371.835,0 c 61.082,0 92.811,13.657 92.811,30.467 0,16.811 -31.729,29.577 -92.811,29.577 -61.082,0 -92.81,-12.766 -92.81,-29.577 z"
   id="path104"
   style="fill:url(#SVGID_5_)" />
<linearGradient
   x1="142.64751"
   y1="317.75101"
   x2="142.64751"
   y2="358.12701"
   id="SVGID_6_"
   gradientUnits="userSpaceOnUse"
   gradientTransform="translate(-25.475,-234.654)">
	<stop
   id="stop107"
   style="stop-color:#9d949a;stop-opacity:1"
   offset="0" />
	<stop
   id="stop109"
   style="stop-color:#efefef;stop-opacity:1"
   offset="0.23" />
	<stop
   id="stop111"
   style="stop-color:#ffffff;stop-opacity:1"
   offset="0.46000001" />
	<stop
   id="stop113"
   style="stop-color:#3d160d;stop-opacity:1"
   offset="0.5" />
	<stop
   id="stop115"
   style="stop-color:#c57f3d;stop-opacity:1"
   offset="0.56" />
	<stop
   id="stop117"
   style="stop-color:#edd999;stop-opacity:1"
   offset="0.63" />
	<stop
   id="stop119"
   style="stop-color:#f1ece0;stop-opacity:1"
   offset="0.76999998" />
	<stop
   id="stop121"
   style="stop-color:#ffffff;stop-opacity:1"
   offset="0.99000001" />
</linearGradient>
<path
   d="m 161.684,95.557 v -0.779 c 0,-5.641 -4.526,-10.17 -10.092,-10.17 H 73.104 v 10.949 h 88.58 z m -51.73,3.746 h 15.549 v 25.049 H 109.954 V 99.303 z m 35.737,0 h 15.548 v 25.049 H 145.691 V 99.303 z m -73.03,0 h 15.548 v 25.049 H 72.661 V 99.303 z"
   id="path123"
   style="fill:url(#SVGID_6_)" />
<linearGradient
   x1="219.3149"
   y1="319.33401"
   x2="219.3149"
   y2="358.91629"
   id="SVGID_7_"
   gradientUnits="userSpaceOnUse"
   gradientTransform="translate(-25.475,-234.654)">
	<stop
   id="stop126"
   style="stop-color:#9d949a;stop-opacity:1"
   offset="0" />
	<stop
   id="stop128"
   style="stop-color:#efefef;stop-opacity:1"
   offset="0.23" />
	<stop
   id="stop130"
   style="stop-color:#ffffff;stop-opacity:1"
   offset="0.46000001" />
	<stop
   id="stop132"
   style="stop-color:#3d160d;stop-opacity:1"
   offset="0.5" />
	<stop
   id="stop134"
   style="stop-color:#c57f3d;stop-opacity:1"
   offset="0.56" />
	<stop
   id="stop136"
   style="stop-color:#edd999;stop-opacity:1"
   offset="0.63" />
	<stop
   id="stop138"
   style="stop-color:#f1ece0;stop-opacity:1"
   offset="0.76999998" />
	<stop
   id="stop140"
   style="stop-color:#ffffff;stop-opacity:1"
   offset="0.99000001" />
</linearGradient>
<path
   d="m 164.876,85.241 h 57.52 v 10.946 h -57.52 V 85.241 z m 0.445,29.019 c 0,5.602 4.528,10.167 10.095,10.167 h 47.388 v -10.946 h -37.852 c -2.263,0 -4.119,-1.969 -4.119,-4.38 v -0.333 h 40.411 v -7.793 H 180.833 V 99.378 H 165.32 v 14.882 z"
   id="path142"
   style="fill:url(#SVGID_7_)" />
<linearGradient
   x1="284.55811"
   y1="318.54099"
   x2="284.55811"
   y2="357.33301"
   id="SVGID_8_"
   gradientUnits="userSpaceOnUse"
   gradientTransform="translate(-25.475,-234.654)">
	<stop
   id="stop145"
   style="stop-color:#9d949a;stop-opacity:1"
   offset="0" />
	<stop
   id="stop147"
   style="stop-color:#efefef;stop-opacity:1"
   offset="0.23" />
	<stop
   id="stop149"
   style="stop-color:#ffffff;stop-opacity:1"
   offset="0.46000001" />
	<stop
   id="stop151"
   style="stop-color:#3d160d;stop-opacity:1"
   offset="0.5" />
	<stop
   id="stop153"
   style="stop-color:#c57f3d;stop-opacity:1"
   offset="0.56" />
	<stop
   id="stop155"
   style="stop-color:#edd999;stop-opacity:1"
   offset="0.63" />
	<stop
   id="stop157"
   style="stop-color:#f1ece0;stop-opacity:1"
   offset="0.76999998" />
	<stop
   id="stop159"
   style="stop-color:#ffffff;stop-opacity:1"
   offset="0.99000001" />
</linearGradient>
<path
   d="m 226.441,95.557 v -0.779 c 0,-5.641 4.526,-10.17 10.093,-10.17 h 53.624 v 10.949 h -63.717 z m 0,18.703 c 0,5.602 4.526,10.167 10.093,10.167 h 45.088 c 5.566,0 10.094,-4.565 10.094,-10.167 0,0 0.259,-4.936 -1.965,-9.093 -2.525,-4.787 -8.5,-4.192 -8.5,-4.192 h -26.83 v 7.793 h 21.746 v 0.333 c 0,2.411 -1.819,4.38 -4.083,4.38 h -26.013 c -2.265,0 -4.083,-1.969 -4.083,-4.38 v -0.333 -9.39 H 226.44 v 14.882 z"
   id="path161"
   style="fill:url(#SVGID_8_)" />
<linearGradient
   x1="352.5864"
   y1="319.05371"
   x2="353.71951"
   y2="359.59521"
   id="SVGID_9_"
   gradientUnits="userSpaceOnUse"
   gradientTransform="translate(-25.475,-234.654)">
	<stop
   id="stop164"
   style="stop-color:#9d949a;stop-opacity:1"
   offset="0" />
	<stop
   id="stop166"
   style="stop-color:#efefef;stop-opacity:1"
   offset="0.23" />
	<stop
   id="stop168"
   style="stop-color:#ffffff;stop-opacity:1"
   offset="0.46000001" />
	<stop
   id="stop170"
   style="stop-color:#3d160d;stop-opacity:1"
   offset="0.5" />
	<stop
   id="stop172"
   style="stop-color:#c57f3d;stop-opacity:1"
   offset="0.56" />
	<stop
   id="stop174"
   style="stop-color:#edd999;stop-opacity:1"
   offset="0.63" />
	<stop
   id="stop176"
   style="stop-color:#f1ece0;stop-opacity:1"
   offset="0.76999998" />
	<stop
   id="stop178"
   style="stop-color:#ffffff;stop-opacity:1"
   offset="0.99000001" />
</linearGradient>
<path
   d="m 360.628,95.557 v -0.779 c 0,-5.641 -4.527,-10.17 -10.131,-10.17 h -45.05 c -5.604,0 -10.13,4.529 -10.13,10.17 v 0.779 h 65.311 z m -65.721,3.746 h 15.549 v 25.049 H 294.907 V 99.303 z m 51.73,0.075 v 7.831 h -29.539 v 7.83 h 29.539 v 9.388 H 360.85 V 99.378 h -14.213 z"
   id="path180"
   style="fill:url(#SVGID_9_)" />
<linearGradient
   x1="441.2471"
   y1="318.54099"
   x2="441.2471"
   y2="358.1254"
   id="SVGID_10_"
   gradientUnits="userSpaceOnUse"
   gradientTransform="translate(-25.475,-234.654)">
	<stop
   id="stop183"
   style="stop-color:#9d949a;stop-opacity:1"
   offset="0" />
	<stop
   id="stop185"
   style="stop-color:#efefef;stop-opacity:1"
   offset="0.23" />
	<stop
   id="stop187"
   style="stop-color:#ffffff;stop-opacity:1"
   offset="0.46000001" />
	<stop
   id="stop189"
   style="stop-color:#3d160d;stop-opacity:1"
   offset="0.5" />
	<stop
   id="stop191"
   style="stop-color:#c57f3d;stop-opacity:1"
   offset="0.56" />
	<stop
   id="stop193"
   style="stop-color:#edd999;stop-opacity:1"
   offset="0.63" />
	<stop
   id="stop195"
   style="stop-color:#f1ece0;stop-opacity:1"
   offset="0.76999998" />
	<stop
   id="stop197"
   style="stop-color:#ffffff;stop-opacity:1"
   offset="0.99000001" />
</linearGradient>
<path
   d="m 447.649,95.557 v -0.779 c 0,-5.641 -4.527,-10.17 -10.13,-10.17 h -53.624 v 10.949 h 63.754 z m -63.754,3.821 h 13.99 v 25.049 h -13.99 V 99.378 z m 63.754,14.882 c 0,5.602 -4.527,10.167 -10.13,10.167 h -36.516 v -10.946 h 26.979 c 2.262,0 4.118,-1.969 4.118,-4.38 v -9.723 h 15.548 v 14.882 z"
   id="path199"
   style="fill:url(#SVGID_10_)" />
<linearGradient
   x1="512.36621"
   y1="318.45609"
   x2="512.53497"
   y2="358.99841"
   id="SVGID_11_"
   gradientUnits="userSpaceOnUse"
   gradientTransform="translate(-25.475,-234.654)">
	<stop
   id="stop202"
   style="stop-color:#9d949a;stop-opacity:1"
   offset="0" />
	<stop
   id="stop204"
   style="stop-color:#efefef;stop-opacity:1"
   offset="0.23" />
	<stop
   id="stop206"
   style="stop-color:#ffffff;stop-opacity:1"
   offset="0.46000001" />
	<stop
   id="stop208"
   style="stop-color:#3d160d;stop-opacity:1"
   offset="0.5" />
	<stop
   id="stop210"
   style="stop-color:#c57f3d;stop-opacity:1"
   offset="0.56" />
	<stop
   id="stop212"
   style="stop-color:#edd999;stop-opacity:1"
   offset="0.63" />
	<stop
   id="stop214"
   style="stop-color:#f1ece0;stop-opacity:1"
   offset="0.76999998" />
	<stop
   id="stop216"
   style="stop-color:#ffffff;stop-opacity:1"
   offset="0.99000001" />
</linearGradient>
<path
   d="m 516.524,95.557 v -0.779 c 0,-5.641 -4.527,-10.17 -10.094,-10.17 h -43.529 c -5.566,0 -10.093,4.529 -10.093,10.17 v 0.779 h 63.716 z m -63.716,3.821 h 13.989 v 25.049 H 452.808 V 99.378 z m 63.94,7.053 v -7.053 h -15.513 v 1.929 c 0,2.377 -1.855,4.344 -4.119,4.344 h -26.978 v 10.946 h 27.312 l 6.754,7.684 h 17.108 l -8.536,-9.761 c 2.414,-1.856 3.972,-4.788 3.972,-8.089 z"
   id="path218"
   style="fill:url(#SVGID_11_)" />
<linearGradient
   x1="554.23242"
   y1="320.11819"
   x2="555.02393"
   y2="358.11591"
   id="SVGID_12_"
   gradientUnits="userSpaceOnUse"
   gradientTransform="translate(-25.475,-234.654)">
	<stop
   id="stop221"
   style="stop-color:#9d949a;stop-opacity:1"
   offset="0" />
	<stop
   id="stop223"
   style="stop-color:#efefef;stop-opacity:1"
   offset="0.23" />
	<stop
   id="stop225"
   style="stop-color:#ffffff;stop-opacity:1"
   offset="0.46000001" />
	<stop
   id="stop227"
   style="stop-color:#3d160d;stop-opacity:1"
   offset="0.5" />
	<stop
   id="stop229"
   style="stop-color:#c57f3d;stop-opacity:1"
   offset="0.56" />
	<stop
   id="stop231"
   style="stop-color:#edd999;stop-opacity:1"
   offset="0.63" />
	<stop
   id="stop233"
   style="stop-color:#f1ece0;stop-opacity:1"
   offset="0.76999998" />
	<stop
   id="stop235"
   style="stop-color:#ffffff;stop-opacity:1"
   offset="0.99000001" />
</linearGradient>
<path
   d="m 521.943,99.378 h 13.99 v 25.049 h -13.99 V 99.378 z m -0.446,-14.137 h 14.882 V 96.187 H 521.497 V 85.241 z"
   id="path237"
   style="fill:url(#SVGID_12_)" />
<linearGradient
   x1="665.7959"
   y1="319.33401"
   x2="665.7959"
   y2="358.12469"
   id="SVGID_13_"
   gradientUnits="userSpaceOnUse"
   gradientTransform="translate(-25.475,-234.654)">
	<stop
   id="stop240"
   style="stop-color:#9d949a;stop-opacity:1"
   offset="0" />
	<stop
   id="stop242"
   style="stop-color:#efefef;stop-opacity:1"
   offset="0.23" />
	<stop
   id="stop244"
   style="stop-color:#ffffff;stop-opacity:1"
   offset="0.46000001" />
	<stop
   id="stop246"
   style="stop-color:#3d160d;stop-opacity:1"
   offset="0.5" />
	<stop
   id="stop248"
   style="stop-color:#c57f3d;stop-opacity:1"
   offset="0.56" />
	<stop
   id="stop250"
   style="stop-color:#edd999;stop-opacity:1"
   offset="0.63" />
	<stop
   id="stop252"
   style="stop-color:#f1ece0;stop-opacity:1"
   offset="0.76999998" />
	<stop
   id="stop254"
   style="stop-color:#ffffff;stop-opacity:1"
   offset="0.99000001" />
</linearGradient>
<path
   d="m 611.338,85.241 h 57.52 v 10.946 h -57.52 V 85.241 z m 0.447,29.019 c 0,5.602 4.528,10.167 10.095,10.167 h 47.424 v -10.946 h -37.889 c -2.263,0 -4.082,-1.969 -4.082,-4.38 v -0.333 h 40.412 v -7.793 h -40.412 v -1.597 h -15.548 v 14.882 z"
   id="path256"
   style="fill:url(#SVGID_13_)" />
<path
   d="m 402.524,16.588 -8.942,27.164 h 4.416 l 8.98,-26.236 c 0.297,-1.189 1.299,-2.078 2.45,-2.078 1.148,0 2.15,0.889 2.447,2.078 l 7.608,22.192 h -11.911 v 4.044 h 17.7 l -8.943,-27.164 c -0.854,-3.005 -3.637,-5.197 -6.901,-5.197 -3.267,0 -6.05,2.192 -6.904,5.197 z m 5.232,16.846 1.559,-4.6 1.633,4.6 h -3.192 z m -0.629,-13.283 -8.017,23.601 h 5.159 l 3.304,-9.798 v 4.639 h 10.389 l -6.16,-18.441 c -0.297,-1.002 -1.225,-3.971 -2.337,-3.971 -1.114,-0.001 -2.043,2.968 -2.338,3.97 z m -28.279,-3.6 h 15.475 v -4.416 h -15.846 c -4.267,0 -7.755,3.452 -7.755,7.719 v 16.179 c 0,4.231 3.489,7.719 7.755,7.719 h 15.846 V 23.157 H 381.78 v 4.044 h 8.127 v 12.135 h -11.059 c -2.041,0 -3.71,-1.672 -3.71,-3.674 V 20.225 c 0,-2.043 1.669,-3.674 3.71,-3.674 z m 2.932,11.763 v 4.416 h 2.6 v 1.078 h -2.6 c -0.594,0 -1.111,-0.483 -1.111,-1.078 v -9.572 c 0,-0.594 0.518,-1.114 1.111,-1.114 h 12.543 v -4.38 h -14.398 c -2.003,0 -3.674,1.635 -3.674,3.675 V 34.55 c 0,2.041 1.671,3.672 3.674,3.672 h 8.87 V 28.314 H 381.78 z M 353.392,16.551 h 15.511 v -4.416 h -15.846 c -4.304,0 -7.756,3.452 -7.756,7.719 v 15.994 c 0,4.267 3.452,7.719 7.756,7.719 h 15.846 v -4.418 h -15.511 c -2.004,0 -3.675,-1.631 -3.675,-3.672 V 20.226 c 0,-2.044 1.671,-3.675 3.675,-3.675 z m 12.172,10.65 v -4.044 h -10.316 c 0,-0.594 0.482,-1.114 1.112,-1.114 h 12.543 v -4.38 h -14.398 c -2.04,0 -3.673,1.635 -3.673,3.675 v 5.863 h 14.732 z m 0,1.484 v 4.044 h -10.316 c 0,0.594 0.482,1.078 1.112,1.078 h 12.543 v 4.415 h -14.398 c -2.04,0 -3.673,-1.631 -3.673,-3.672 v -5.864 h 14.732 z m -37.851,5.493 h -9.315 v 4.043 h 14.176 0.187 c 2.671,-0.11 4.787,-2.262 4.787,-4.971 0,-2.71 -2.227,-4.937 -4.973,-4.937 h -5.566 c -2.263,-0.854 -4.193,-3.081 -4.193,-5.715 0,-3.339 3.08,-6.048 6.458,-6.048 h 13.804 v -4.416 h -14.363 c -5.716,0 -10.318,4.6 -10.318,10.279 0,5.676 4.973,10.315 10.688,10.315 v -0.074 l 0.038,0.074 h 3.265 c 0.408,0 0.743,0.297 0.743,0.705 0,0.41 -0.335,0.744 -0.743,0.744 h -4.675 z m 6.084,-12.468 h 9.277 v -4.047 h -14.176 -0.184 c -2.673,0.075 -4.789,2.265 -4.789,4.936 0,2.747 2.226,4.974 4.972,4.974 h 5.604 c 2.265,0.854 4.157,3.078 4.157,5.677 0,3.377 -3.081,6.086 -6.457,6.086 h -13.806 v 4.416 h 14.362 c 5.714,0 10.315,-4.639 10.315,-10.318 0,-5.677 -4.972,-10.277 -10.688,-10.277 v 0.072 -0.072 h -3.303 c -0.408,0 -0.741,-0.336 -0.741,-0.743 0,-0.408 0.333,-0.705 0.741,-0.705 h 4.716 z"
   id="path258"
   style="fill:#000099;stroke:#ffffff;stroke-width:0.47999999;stroke-linecap:round;stroke-linejoin:round" />
</svg>